{"title":"Beethoven's 2nd 1993 DVDrip English Klam","uid":6499287,"size":1471898761,"categoryP":"video","categoryS":"movies","magnet":"?xt=urn:btih:9fa9c0cd752789cfef1a1d9aaf570a0a9cfc2a77&amp;dn=Beethoven%5C%27s+2nd+1993+DVDrip+English+Klam&amp;tr=udp%3A%2F%2Ftracker.openbittorrent.com%3A80&amp;tr=udp%3A%2F%2Fopen.demonii.com%3A1337&amp;tr=udp%3A%2F%2Ftracker.coppersurfer.tk%3A6969&amp;tr=udp%3A%2F%2Fexodus.desync.com%3A6969","seeders":11,"leechers":4,"uploader":"Klambake","files":-1,"time":1309189584,"description":"With: Charles Grodin, Bonnie Hunt en Nicholle Tom\n\nBeethoven wordt vader. De eigenaar van de puppies wil hen samen met de moeder echter gebruiken voor de verdeling van de eigendommen na haar scheiding. De Newton-kinderen besluiten de puppies te stelen. Zullen ze de honden mogen houden? En zullen ze de moeder van de puppies kunnen redden?\n\nBeethoven the St. Bernard dog becomes a father, but his girlfriend Missy is dog-napped, and his puppies are in danger of the same fate. \n\n------------------ Dutch Friends ------------------\nYou can find my Friends at: http://www.Film-Test.nl \n------ They got my dutchs subs ---- and more ------\n\nGeneral:\n\nComplete name                    : Beethoven 2nd\\Beethoven 2nd.avi\nFormat                           : AVI\nFormat/Info                      : Audio Video Interleave\nFile size                        : 1.37 GiB\nDuration                         : 1h 24mn\nOverall bit rate                 : 2 311 Kbps\n\nVideo:\n\nFormat                           : MPEG-4 Visual\nFormat profile                   : Simple@L3\nFormat settings, BVOP            : No\nFormat settings, QPel            : No\nFormat settings, GMC             : No warppoints\nFormat settings, Matrix          : Default (H.263)\nCodec ID                         : XVID\nCodec ID/Hint                    : XviD\nDuration                         : 1h 24mn\nBit rate                         : 2 108 Kbps\nWidth                            : 652 pixels\nHeight                           : 352 pixels\nDisplay aspect ratio             : 1.852\nFrame rate                       : 25.000 fps\nColor space                      : YUV\nChroma subsampling               : 4:2:0\nBit depth                        : 8 bits\nScan type                        : Progressive\nBits/(Pixel*Frame)               : 0.367\nStream size                      : 1.25 GiB (91%)\nWriting library                  : XviD 1.1.2 (UTC 2006-11-01)\n\nAudio:\n\nFormat                           : AC-3\nFormat/Info                      : Audio Coding 3\nFormat profile                   : Dolby Digital\nMode extension                   : CM (complete main)\nCodec ID                         : 2000\nDuration                         : 1h 24mn\nBit rate mode                    : Constant\nBit rate                         : 192 Kbps\nChannel(s)                       : 2 channels\nChannel positions                : Front: L R\nSampling rate                    : 48.0 KHz\nBit depth                        : 16 bits\nStream size                      : 116 MiB (8%)\nAlignment                        : Aligned on interleaves\nInterleave, duration             : 32 ms (0.80 video frame)\n\n","torrent":{"xt":"urn:btih:9fa9c0cd752789cfef1a1d9aaf570a0a9cfc2a77","amp;dn":"Beethoven%5C%27s+2nd+1993+DVDrip+English+Klam","amp;tr":["udp%3A%2F%2Ftracker.openbittorrent.com%3A80","udp%3A%2F%2Fopen.demonii.com%3A1337","udp%3A%2F%2Ftracker.coppersurfer.tk%3A6969","udp%3A%2F%2Fexodus.desync.com%3A6969"],"infoHash":"9fa9c0cd752789cfef1a1d9aaf570a0a9cfc2a77","infoHashBuffer":{"type":"Buffer","data":[159,169,192,205,117,39,137,207,239,26,29,154,175,87,10,10,156,252,42,119]},"announce":[],"urlList":[]}}